<?xml version="1.0"?>
<svg width="155" height="23" xmlns="http://www.w3.org/2000/svg" xmlns:svg="http://www.w3.org/2000/svg">
 <style type="text/css">.st0{fill:#FFFFFF;}</style>
 <g>
  <title>Layer 1</title>
  <g id="svg_1">
   <g id="svg_2">
    <path id="svg_3" d="m13.467,18.432l-5.342,0l0.035,-5.732l5.409,0l0,-2.643l-5.376,0l0.034,-5.385l5.31,0l0.239,2.711l2.773,0l-0.172,-5.352l-14.072,0l0,2.641l2.225,0l-0.102,13.759l-2.122,0l0,2.639l14.177,0l0.342,-5.698l-3.013,0l-0.345,3.06zm17.739,-13.759l2.26,0l-4.589,12.925l-0.068,0l-4.622,-12.925l1.884,0l0,-2.641l-8.015,0l0,2.641l1.884,0l6.712,16.399l3.835,0l6.68,-16.399l1.779,0l0,-2.641l-7.739,0l0,2.641l-0.001,0zm20.751,13.759l-5.342,0l0.035,-5.732l5.41,0l0,-2.643l-5.375,0l0.033,-5.385l5.309,0l0.239,2.711l2.774,0l-0.172,-5.352l-14.074,0l0,2.641l2.225,0l-0.102,13.759l-2.123,0l0,2.639l14.177,0l0.341,-5.698l-3.012,0l-0.343,3.06zm20.821,-2.295c-1.747,-3.056 -2.192,-3.509 -3.939,-3.993l0,-0.072c3.357,-0.867 4.419,-2.849 4.419,-5.037c0,-2.466 -1.403,-5.004 -5.754,-5.004l-8.664,0l0,2.641l2.225,0l-0.102,13.759l-2.123,0l0,2.639l8.081,0l0,-2.639l-2.227,0l0.035,-5.455l0.753,0c1.37,0 1.782,0.243 3.563,3.787c1.985,3.995 2.292,4.308 4.827,4.308l1.918,0l0,-2.745c-0.239,0.035 -0.514,0.105 -0.787,0.105c-0.649,0.001 -1.061,-0.312 -2.225,-2.294zm-6.541,-5.802l-1.471,0l0.032,-5.663l2.261,0c1.714,0 2.569,1.043 2.569,2.779c-0.001,1.772 -1.371,2.884 -3.391,2.884zm24.554,-5.662l2.225,0l-0.102,10.249l-0.07,0l-9.518,-12.89l-5.549,0l0,2.641l2.226,0l-0.102,13.759l-2.124,0l0,2.639l7.364,0l0,-2.639l-2.228,0l0.103,-10.91l0.068,0l10.034,13.55l2.809,0l0.102,-16.399l2.122,0l0,-2.641l-7.36,0l0,2.641zm18.01,-3.023c-5.788,0 -9.314,4.171 -9.314,10.147c0,5.315 2.843,9.657 9.314,9.657c5.788,0 9.315,-4.169 9.315,-10.18c0,-5.282 -2.843,-9.624 -9.315,-9.624zm0,16.746c-3.15,0 -5.479,-2.467 -5.479,-6.741c0,-3.926 1.985,-6.947 5.479,-6.947c3.152,0 5.478,2.468 5.478,6.808c0.001,3.858 -1.985,6.88 -5.478,6.88zm10.889,-16.365l-0.205,5.352l2.84,0l0.139,-2.711l3.766,0l-0.102,13.759l-2.123,0l0,2.639l8.081,0l0,-2.639l-2.227,0l0.102,-13.759l3.768,0l0.136,2.711l2.843,0l-0.204,-5.352l-16.814,0zm30.615,13.343l-0.344,3.058l-5.342,0l0.034,-5.732l5.41,0l0,-2.643l-5.376,0l0.035,-5.385l5.307,0l0.24,2.711l2.773,0l-0.17,-5.352l-14.075,0l0,2.641l2.226,0l-0.102,13.759l-2.124,0l0,2.639l14.177,0l0.342,-5.698l-3.011,0l0,0.002z" class="st0"/>
   </g>
  </g>
 </g>
</svg>