<svg version="1.1" id="Layer_1" xmlns="http://www.w3.org/2000/svg" xmlns:xlink="http://www.w3.org/1999/xlink" x="0px" y="0px" viewBox="0 0 40 41.103" style="enable-background:new 0 0 200 41.103;" xml:space="preserve">
<style type="text/css">
	.st0{fill:#2DBE60;}
	.st1{fill-rule:evenodd;clip-rule:evenodd;fill:#666666;}
</style>
<g>
	<g>
		<g>
			<path class="st1" d="M35.252,7.514c-0.299-1.596-1.248-2.383-2.107-2.692c-0.926-0.334-2.804-0.681-5.163-0.959
				c-1.898-0.224-4.13-0.205-5.478-0.164c-0.162-1.107-0.939-2.123-1.809-2.473c-2.316-0.932-5.866-0.706-6.785-0.449
				c-0.731,0.204-1.57,0.626-2.019,1.27c-0.302,0.431-0.466,0.982-0.468,1.752c0,0.435,0.012,1.463,0.023,2.375
				c0.011,0.915-0.007,1.734-0.007,1.739c-0.001,0.815-0.662,1.508-1.48,1.51H6.203c-0.801,0-1.413,0.135-1.881,0.347
				c-0.468,0.213-0.8,0.468-1.052,0.807c-0.502,0.673-0.589,1.504-0.587,2.352c0,0,0.007,0.692,0.174,2.033
				C2.996,16,4.122,23.247,5.191,25.451c0.415,0.857,0.691,1.215,1.505,1.593c1.815,0.777,5.96,1.641,7.903,1.888
				c1.939,0.248,3.156,0.769,3.881-0.751c0.002-0.004,0.145-0.378,0.342-0.928c0.63-1.907,0.718-3.598,0.718-4.823
				c0-0.124,0.182-0.13,0.182,0c0,0.864-0.165,3.924,2.147,4.744c0.913,0.323,2.807,0.612,4.731,0.838
				c1.74,0.2,3.002,0.884,3.002,5.345c0,2.714-0.57,3.086-3.552,3.086c-2.417,0-3.339,0.062-3.339-1.856
				c0-1.552,1.535-1.389,2.673-1.389c0.508,0,0.139-0.378,0.139-1.334c0-0.953,0.596-1.521,0.032-1.535
				c-3.934-0.108-6.248,0.014-6.248,4.931c0,4.464,1.709,5.292,7.293,5.292c4.377,0,5.92-0.143,7.728-5.748
				c0.358-1.107,1.223-4.483,1.746-10.153C36.405,21.065,35.762,10.245,35.252,7.514z M27.621,19.474
				c-0.541-0.019-1.061,0.015-1.546,0.093c0.137-1.102,0.592-2.454,2.204-2.398c1.785,0.062,2.034,1.748,2.041,2.889
				C29.567,19.723,28.636,19.509,27.621,19.474z M6.048,8.302c0,0,0,0,0.002,0h3.756c0.215,0,0.389-0.175,0.389-0.388
				c0-0.001-0.046-3.219-0.046-4.113V3.789c0-0.735,0.154-1.375,0.423-1.912l0.128-0.241c-0.014,0.002-0.028,0.009-0.043,0.023
				L3.36,8.893C3.346,8.904,3.337,8.919,3.333,8.935C3.484,8.86,3.69,8.758,3.719,8.745C4.354,8.458,5.125,8.302,6.048,8.302z"></path>
		</g>
	</g>
</g>
</svg>